<svg width="148" height="30" viewBox="0 0 148 30" fill="none" xmlns="http://www.w3.org/2000/svg">
<path d="M28.68 3.4C28.4133 3.74667 28.2133 4.22667 28.08 4.84C27.9733 5.42667 27.92 6.24 27.92 7.28V22.76C27.92 23.9067 27.9867 24.7867 28.12 25.4C28.28 25.9867 28.5333 26.48 28.88 26.88C29.5733 27.6533 30.5867 28.1467 31.92 28.36V29H19.16V28.36C20.6533 28.12 21.7333 27.5467 22.4 26.64C22.9067 26 23.16 24.7067 23.16 22.76V13.72C22.04 13.7733 20.92 14 19.8 14.4C18.4667 14.9067 17.08 15.44 15.64 16C14.2 16.6133 12.6933 17.1733 11.12 17.68C10.3733 17.9467 9.58667 18.1467 8.76 18.28V22.76C8.76 23.9067 8.82667 24.7867 8.96 25.4C9.12 25.9867 9.38667 26.48 9.76 26.88C10.4533 27.6533 11.4667 28.1467 12.8 28.36V29H0.04V28.36C1.50667 28.12 2.57333 27.5467 3.24 26.64C3.77333 26 4.04 24.7067 4.04 22.76V7.28C4.04 6.05333 3.97333 5.16 3.84 4.6C3.70667 4.04 3.45333 3.56 3.08 3.16C2.38667 2.38667 1.37333 1.89333 0.04 1.68V1.04H12.8V1.68C11.3067 1.94667 10.2267 2.52 9.56 3.4C9.29333 3.74667 9.09333 4.22667 8.96 4.84C8.82667 5.42667 8.76 6.24 8.76 7.28V16.84C9.58667 16.7067 10.3467 16.52 11.04 16.28C12.56 15.7733 14.0267 15.2267 15.44 14.64C16.8533 14.0533 18.24 13.52 19.6 13.04C20.7733 12.6133 21.96 12.3733 23.16 12.32V7.28C23.16 6.05333 23.0933 5.16 22.96 4.6C22.8267 4.04 22.5733 3.56 22.2 3.16C21.5067 2.38667 20.4933 1.89333 19.16 1.68V1.04H31.92V1.68C30.4533 1.94667 29.3733 2.52 28.68 3.4ZM34.0244 1.68V1.04H46.7844V1.68C45.291 1.94667 44.211 2.52 43.5444 3.4C43.2777 3.74667 43.0777 4.22667 42.9444 4.84C42.811 5.42667 42.7444 6.24 42.7444 7.28V22.76C42.7444 23.9067 42.811 24.7867 42.9444 25.4C43.1044 25.9867 43.371 26.48 43.7444 26.88C44.4377 27.6533 45.451 28.1467 46.7844 28.36V29H34.0244V28.36C35.491 28.12 36.5577 27.5467 37.2244 26.64C37.7577 26 38.0244 24.7067 38.0244 22.76V7.28C38.0244 6.05333 37.9577 5.16 37.8244 4.6C37.691 4.04 37.4377 3.56 37.0644 3.16C36.371 2.38667 35.3577 1.89333 34.0244 1.68ZM71.3481 19.88H72.1481L70.6681 29H48.8681V28.32L65.6681 1.84H62.2281C59.4281 1.84 57.2281 2.37333 55.6281 3.44C54.0548 4.48 52.7348 6.26667 51.6681 8.8H50.9081L52.5081 1.04H71.3481V1.68L54.6281 27.96H59.4681C61.4415 27.96 63.1881 27.7333 64.7081 27.28C66.2281 26.8 67.4148 26.1333 68.2681 25.28C69.5481 24.0267 70.5748 22.2267 71.3481 19.88ZM100.608 20.64H101.328L98.8875 29H74.7275V28.36C76.1942 28.12 77.2608 27.5467 77.9275 26.64C78.4608 26 78.7275 24.7067 78.7275 22.76V7.28C78.7275 6.05333 78.6608 5.16 78.5275 4.6C78.3942 4.04 78.1408 3.56 77.7675 3.16C77.0742 2.38667 76.0608 1.89333 74.7275 1.68V1.04H98.0075L98.8075 8.68H98.1275C97.4342 6.33333 96.3808 4.6 94.9675 3.48C93.5808 2.36 91.7675 1.8 89.5275 1.8H88.3675C86.5808 1.8 85.3142 2.14667 84.5675 2.84C83.8208 3.53333 83.4475 4.68 83.4475 6.28V13.24H86.2075C88.2608 13.24 89.7542 12.92 90.6875 12.28C91.6208 11.64 92.2742 10.4667 92.6475 8.76H93.2475V19.12H92.6475C92.3542 17.76 91.9808 16.72 91.5275 16C91.0742 15.28 90.4342 14.7733 89.6075 14.48C88.7808 14.1867 87.6608 14.04 86.2475 14.04H83.4475V22.92C83.4475 24.28 83.5675 25.32 83.8075 26.04C84.0742 26.7333 84.5275 27.2267 85.1675 27.52C85.8075 27.8133 86.7008 27.96 87.8475 27.96H89.7275C91.5942 27.96 93.3542 27.3867 95.0075 26.24C96.8475 24.96 98.6608 23.1733 100.448 20.88L100.608 20.64ZM144.486 22.44C145.233 22.44 145.873 22.7067 146.406 23.24C146.966 23.7733 147.246 24.4267 147.246 25.2C147.246 25.6267 147.139 26.04 146.926 26.44C146.766 26.7867 146.539 27.08 146.246 27.32C146.246 27.32 146.233 27.3333 146.206 27.36C146.179 27.36 146.166 27.36 146.166 27.36C144.299 28.8533 142.286 29.6 140.126 29.6C138.899 29.6 137.619 29.36 136.286 28.88C135.459 28.5867 134.619 28.2267 133.766 27.8C132.939 27.3467 132.046 26.8 131.086 26.16C130.153 25.4933 129.379 24.9467 128.766 24.52C128.179 24.0667 127.339 23.4133 126.246 22.56C124.086 20.88 122.499 19.72 121.486 19.08C118.526 17.1867 115.326 16.48 111.886 16.96V22.72C111.886 23.8933 111.953 24.7733 112.086 25.36C112.246 25.92 112.526 26.4267 112.926 26.88C113.646 27.6267 114.726 28.1067 116.166 28.32V28.96H103.166V28.32C104.633 28.08 105.699 27.52 106.366 26.64C106.899 25.9733 107.166 24.6667 107.166 22.72V7.28C107.166 6.05333 107.086 5.16 106.926 4.6C106.793 4.04 106.553 3.56 106.206 3.16C105.539 2.44 104.526 1.94667 103.166 1.68V1.04C103.353 1.06667 103.526 1.08 103.686 1.08L105.486 1.16C106.206 1.21333 107.046 1.24 108.006 1.24C109.499 1.24 110.859 1.17333 112.086 1.04L114.966 0.799998C115.873 0.719999 116.753 0.68 117.606 0.68C119.233 0.68 120.673 0.839999 121.926 1.16C123.206 1.48 124.273 1.94667 125.126 2.56C126.006 3.17333 126.686 3.93333 127.166 4.84C127.646 5.72 127.886 6.72 127.886 7.84C127.886 9.68 127.259 11.1067 126.006 12.12C124.806 13.1067 123.086 13.7067 120.846 13.92C120.526 13.9467 120.286 13.9733 120.126 14C118.499 14.1867 116.273 14.2933 113.446 14.32C113.339 14.32 113.179 14.32 112.966 14.32C116.139 14.9867 119.193 16.2533 122.126 18.12C123.166 18.76 124.779 19.9467 126.966 21.68C128.006 22.48 128.793 23.08 129.326 23.48C129.859 23.88 130.619 24.4267 131.606 25.12C132.593 25.7867 133.393 26.2933 134.006 26.64C134.646 26.96 135.419 27.3067 136.326 27.68C137.233 28.0533 138.033 28.28 138.726 28.36C139.419 28.44 140.179 28.44 141.006 28.36C141.833 28.28 142.633 28.0667 143.406 27.72C142.899 27.5067 142.486 27.1733 142.166 26.72C141.873 26.2667 141.726 25.76 141.726 25.2C141.726 24.6933 141.846 24.2267 142.086 23.8C142.326 23.3733 142.659 23.04 143.086 22.8C143.513 22.56 143.979 22.44 144.486 22.44ZM111.886 6.4V13.48H115.566C117.673 13.48 119.193 13.2533 120.126 12.8C120.953 12.3733 121.593 11.72 122.046 10.84C122.526 9.93333 122.766 8.89333 122.766 7.72C122.766 6.52 122.486 5.45333 121.926 4.52C121.393 3.56 120.633 2.81333 119.646 2.28C118.659 1.74667 117.526 1.48 116.246 1.48C114.379 1.48 113.113 2.06667 112.446 3.24C112.073 3.90667 111.886 4.96 111.886 6.4ZM131.926 16.04C130.753 14.8667 129.966 13.5067 129.566 11.96C129.166 10.4133 129.166 8.88 129.566 7.36C129.966 5.81333 130.739 4.46667 131.886 3.32C132.739 2.46667 133.726 1.81333 134.846 1.36C135.966 0.906666 137.113 0.68 138.286 0.68C139.459 0.68 140.593 0.906666 141.686 1.36C142.779 1.81333 143.753 2.46667 144.606 3.32C145.753 4.46667 146.526 5.81333 146.926 7.36C147.326 8.88 147.326 10.4133 146.926 11.96C146.526 13.5067 145.753 14.8533 144.606 16C143.753 16.8533 142.779 17.5067 141.686 17.96C140.593 18.4133 139.446 18.64 138.246 18.64C137.073 18.64 135.939 18.4267 134.846 18C133.753 17.5467 132.779 16.8933 131.926 16.04ZM132.046 8.2C131.513 9.13333 131.166 10.04 131.006 10.92C130.846 11.8 130.886 12.64 131.126 13.44C131.366 14.24 131.793 14.9467 132.406 15.56C133.419 16.5733 134.699 17.0533 136.246 17C137.206 16.9733 138.219 16.68 139.286 16.12C140.353 15.56 141.406 14.76 142.446 13.72C143.353 12.8133 144.073 11.8933 144.606 10.96C145.139 10.0267 145.486 9.13333 145.646 8.28C145.806 7.4 145.766 6.57333 145.526 5.8C145.313 5 144.886 4.28 144.246 3.64C143.633 3.02667 142.926 2.61333 142.126 2.4C141.353 2.16 140.526 2.12 139.646 2.28C138.766 2.44 137.846 2.8 136.886 3.36C135.953 3.89333 135.059 4.6 134.206 5.48C133.326 6.36 132.606 7.26667 132.046 8.2Z" fill="black"/>
</svg>
